<?xml version="1.0" standalone="no"?>
<!DOCTYPE svg PUBLIC "-//W3C//DTD SVG 20010904//EN"
 "http://www.w3.org/TR/2001/REC-SVG-20010904/DTD/svg10.dtd">
<svg version="1.0" xmlns="http://www.w3.org/2000/svg"
 width="500.000000pt" height="500.000000pt" viewBox="0 0 500.000000 500.000000"
 preserveAspectRatio="xMidYMid meet">
<metadata>
Created by potrace 1.14, written by Peter Selinger 2001-2017
</metadata>
<g transform="translate(0.000000,500.000000) scale(0.100000,-0.100000)"
fill="#000000" stroke="none">
<path d="M2265 3893 c-11 -2 -58 -11 -105 -20 -119 -22 -230 -63 -417 -154
-90 -44 -165 -79 -167 -79 -15 0 -210 -119 -262 -160 -49 -38 -71 -49 -115
-55 -71 -10 -192 -54 -293 -108 -44 -24 -102 -51 -128 -61 -108 -40 -225 -138
-297 -249 -23 -34 -47 -69 -56 -78 -28 -30 -58 -114 -71 -203 -29 -195 -10
-328 70 -491 50 -101 104 -162 184 -207 46 -27 52 -33 51 -61 -1 -30 -1 -30
-8 -7 -8 29 -18 16 -15 -20 4 -50 15 -113 22 -124 3 -6 8 -19 9 -29 4 -24 39
-93 73 -142 30 -43 167 -190 154 -165 -9 18 -6 16 100 -73 124 -102 276 -176
397 -192 79 -11 315 -13 379 -3 83 13 267 67 343 101 l67 30 38 -26 c98 -68
243 -114 392 -124 62 -4 89 -10 98 -22 7 -9 18 -15 23 -13 6 1 8 -1 5 -6 -3
-5 18 -24 47 -43 49 -32 57 -34 142 -34 103 0 163 17 241 68 28 19 75 41 105
51 67 22 124 54 171 98 40 37 78 95 78 119 0 13 7 15 39 9 80 -15 278 37 335
88 11 10 56 31 100 47 129 46 217 127 329 303 82 129 140 248 158 322 30 123
9 344 -40 424 -19 30 -19 33 0 106 38 147 29 294 -24 393 -103 195 -422 383
-732 431 -164 26 -334 5 -442 -53 l-53 -29 -30 56 c-77 143 -183 238 -340 305
-137 58 -235 78 -395 82 -77 1 -149 1 -160 -2z m285 -38 c180 -24 343 -99 444
-203 83 -87 152 -198 143 -233 -13 -49 47 -48 149 4 162 82 334 101 476 53
291 -98 496 -268 588 -486 32 -77 40 -246 15 -337 -16 -59 -16 -67 -2 -101 83
-192 63 -393 -60 -601 -65 -110 -118 -171 -199 -230 -112 -80 -192 -102 -383
-103 -123 -1 -124 -1 -166 -33 l-41 -32 -40 27 c-81 56 -159 60 -269 15 -122
-49 -220 -123 -256 -192 -20 -41 -26 -42 -109 -37 -106 6 -205 36 -329 99
-101 52 -109 55 -142 44 -19 -7 -38 -15 -44 -19 -27 -20 -240 -81 -334 -96
-18 -3 -43 -8 -55 -10 -11 -3 -68 -7 -126 -9 -124 -5 -210 14 -324 70 -150 75
-329 234 -427 382 -23 34 -54 105 -76 171 -37 110 -39 114 -78 131 -59 27 -78
48 -119 129 -79 158 -107 262 -111 424 -6 235 114 481 295 605 61 41 115 68
190 93 58 20 86 22 215 18 85 -2 89 0 171 80 90 89 159 138 295 211 172 91
365 156 504 168 39 3 71 6 72 7 4 3 84 -2 133 -9z m623 -395 c3 -11 2 -18 -3
-15 -4 3 -10 14 -13 25 -3 11 -2 18 3 15 4 -3 10 -14 13 -25z m1181 -416 c3
-8 2 -12 -4 -9 -6 3 -10 10 -10 16 0 14 7 11 14 -7z m-3681 -1179 c5 -28 4
-34 -3 -20 -8 19 -14 73 -6 64 2 -2 6 -22 9 -44z m36 -107 c6 -18 7 -28 2 -23
-10 12 -25 55 -18 55 3 0 10 -15 16 -32z m3442 -62 c-24 -25 -71 -59 -105 -76
-45 -23 -54 -26 -36 -10 29 24 173 128 180 129 2 1 -15 -19 -39 -43z m-741
-142 c20 -20 23 -100 5 -138 -54 -113 -229 -219 -322 -194 -75 20 -79 132 -8
217 28 32 125 103 167 121 29 12 144 8 158 -6z m435 -44 c3 -6 -1 -7 -10 -4
-8 4 -21 2 -28 -4 -14 -12 -119 -44 -124 -38 -3 2 12 9 32 16 20 7 49 18 63
26 32 16 58 18 67 4z"/>
<path d="M2096 3241 c-2 -3 -7 -33 -11 -66 -3 -32 -8 -62 -10 -65 -1 -3 -6
-36 -9 -73 -7 -67 -6 -68 15 -65 16 2 28 16 40 48 9 25 24 63 33 85 l16 40 -5
-40 c-2 -22 -7 -62 -11 -89 -7 -48 -6 -49 19 -44 18 3 24 1 20 -8 -4 -12 25
-34 45 -34 4 0 21 27 37 60 33 68 42 73 20 10 -14 -39 -14 -44 2 -56 36 -27
37 -26 122 158 42 93 42 97 -11 117 -20 8 -28 7 -32 -5 -7 -19 -15 -18 -56 8
-29 18 -52 22 -128 24 -50 1 -94 -1 -96 -5z"/>
<path d="M1563 3199 c-30 -19 -33 -26 -33 -67 0 -110 58 -393 130 -641 56
-190 100 -299 186 -458 43 -79 46 -82 69 -71 27 12 30 24 15 62 -15 41 -4 30
26 -23 24 -46 28 -49 50 -39 29 14 30 30 3 88 -11 25 -22 62 -24 83 -2 21 -24
104 -50 185 -69 221 -75 243 -75 262 0 13 34 32 133 73 72 31 155 61 182 68
53 13 115 37 115 43 0 3 -4 17 -10 31 -10 26 -11 26 -100 24 -50 -1 -110 -5
-133 -10 -24 -4 -74 -10 -112 -14 -39 -3 -78 -8 -87 -11 -10 -3 -18 2 -22 13
-9 32 -35 185 -46 273 -6 47 -12 95 -15 106 -6 29 -58 50 -89 36 -14 -6 -28
-7 -37 -1 -22 14 -41 11 -76 -12z"/>
<path d="M2485 2980 c-15 -17 -97 -188 -133 -280 l-22 -55 -89 -28 c-87 -28
-101 -38 -101 -78 0 -22 1 -22 53 -10 20 5 37 5 37 1 0 -5 13 -7 29 -5 l29 4
-15 -47 c-45 -146 -75 -403 -50 -428 13 -13 38 21 58 78 10 29 19 51 19 48 1
-3 3 -31 5 -64 3 -32 7 -62 11 -65 13 -14 43 43 73 141 129 419 113 384 188
393 32 4 70 9 86 11 19 3 27 0 27 -10 0 -33 -112 -330 -121 -321 -4 3 -69
-134 -117 -246 -5 -12 70 -21 78 -9 5 8 15 8 34 0 15 -5 33 -10 41 -10 8 0 46
52 86 115 40 63 75 115 78 115 8 -1 51 -124 60 -170 6 -30 10 -35 31 -32 14 2
27 6 29 8 2 2 -1 36 -8 75 -6 40 -10 73 -8 76 5 4 41 -97 51 -139 6 -25 8 -26
35 -17 26 9 28 13 21 40 -5 17 -5 29 1 29 5 0 9 27 9 59 0 97 12 105 29 21 14
-65 19 -75 39 -78 21 -3 22 0 23 55 0 32 2 67 5 78 7 35 7 135 0 142 -4 4 -24
2 -46 -4 -22 -5 -40 -6 -40 -2 0 12 -31 11 -69 -2 -29 -10 -31 -14 -25 -44 5
-27 2 -33 -16 -38 -12 -3 -36 -3 -55 0 l-33 5 57 97 c101 171 123 249 76 275
-11 6 -23 15 -26 19 -5 7 -286 0 -329 -8 -11 -2 -20 -2 -20 1 0 2 29 63 65
134 36 71 65 139 65 150 0 27 -16 32 -111 34 -61 1 -84 -3 -94 -14z"/>
<path d="M2786 2973 c-2 -16 -8 -62 -11 -104 -5 -62 -4 -78 10 -89 9 -8 19 -9
24 -4 12 12 51 140 51 166 0 10 4 17 8 14 5 -3 5 -38 0 -78 -8 -76 8 -138 35
-138 7 0 30 25 52 55 22 30 41 55 42 55 2 0 -4 -18 -13 -40 -17 -42 -14 -70 8
-70 29 1 136 166 125 193 -9 24 -54 33 -75 14 -15 -13 -19 -13 -30 -1 -7 8
-22 14 -32 14 -11 0 -20 7 -20 15 0 8 -3 15 -7 16 -5 0 -20 3 -36 5 -19 3 -29
0 -34 -11 -4 -13 -8 -14 -13 -4 -5 7 -24 14 -43 16 -32 3 -36 1 -41 -24z"/>
<path d="M3418 2487 c-11 -12 -46 -56 -76 -97 -105 -141 -245 -315 -287 -355
-23 -22 -96 -85 -163 -140 -67 -54 -122 -102 -122 -105 0 -3 14 -14 30 -24 28
-16 33 -16 54 -2 21 13 26 13 45 0 25 -18 10 -25 181 94 172 121 210 151 291
233 129 131 260 330 244 371 -9 24 -68 48 -89 36 -13 -7 -30 -7 -53 0 -29 9
-36 8 -55 -11z"/>
<path d="M3598 1286 c-43 -15 -138 -75 -138 -86 0 -4 -20 -10 -45 -12 -92 -11
-218 -116 -207 -173 2 -13 18 -39 34 -56 29 -29 34 -31 83 -26 60 6 100 24
148 67 19 16 49 32 68 35 56 9 72 16 122 47 63 40 93 95 77 142 -20 62 -75 86
-142 62z m86 -79 c-1 -42 -32 -82 -74 -99 -44 -18 -94 -20 -115 -4 -20 14 -20
15 10 46 46 48 127 98 155 96 22 -2 25 -6 24 -39z"/>
<path d="M3871 1122 c-17 -9 -44 -35 -60 -56 -28 -38 -31 -40 -79 -37 -59 3
-101 -16 -131 -58 -37 -52 -19 -94 46 -107 47 -9 117 37 149 99 12 23 18 26
34 17 32 -17 84 -11 118 13 57 42 90 98 74 125 -13 20 -115 23 -151 4z m109
-30 c0 -35 -67 -92 -107 -92 -27 0 -29 12 -6 50 28 48 113 79 113 42z"/>
</g>
</svg>
